# 3ds Max Wavefront OBJ Exporter v0.97b - (c)2007 guruware
# File Created: 17.11.2012 18:03:26

mtllib stud.mtl

#
# object Inst3D
#

v  -0.5011 -0.5027 0.0017
v  -0.5011 0.5009 -0.0016
v  0.5025 0.5009 -0.0016
v  0.5025 -0.5027 0.0017
v  -0.1530 -0.2659 0.1483
v  -0.1530 -0.2671 0.0009
v  -0.2655 -0.1545 0.0005
v  -0.2655 -0.1534 0.1478
v  -0.3066 -0.0009 0.0000
v  -0.3066 0.0003 0.1474
v  -0.2655 0.1528 -0.0005
v  -0.2655 0.1539 0.1469
v  -0.1530 0.2653 -0.0008
v  -0.1530 0.2663 0.1465
v  0.0007 0.3065 -0.0010
v  0.0007 0.3076 0.1464
v  0.1544 0.2653 -0.0008
v  0.1544 0.2663 0.1465
v  0.2669 0.1528 -0.0005
v  0.2669 0.1539 0.1469
v  0.3081 -0.0009 0.0000
v  0.3081 0.0003 0.1474
v  0.2669 -0.1545 0.0005
v  0.2669 -0.1534 0.1478
v  0.1544 -0.2671 0.0009
v  0.1544 -0.2659 0.1483
v  0.0007 -0.3082 0.0010
v  0.0007 -0.3071 0.1483
v  0.0007 0.0003 0.1474
# 29 vertices

vn -0.0000 -0.0050 -1.0000
vn 0.7071 0.7071 -0.0035
vn 0.9659 0.2588 -0.0013
vn 0.9659 -0.2588 0.0013
vn 0.7071 -0.7071 0.0035
vn 0.2588 -0.9659 0.0048
vn -0.2588 -0.9659 0.0048
vn -0.7071 -0.7071 0.0035
vn -0.9659 -0.2588 0.0013
vn -0.9659 0.2588 -0.0013
vn -0.7071 0.7071 -0.0035
vn -0.2588 0.9659 -0.0048
vn 0.2588 0.9659 -0.0048
vn 0.0000 -0.0051 1.0000
vn 0.0001 -0.0050 1.0000
vn -0.0001 -0.0050 -1.0000
vn 0.0001 -0.0049 -1.0000
vn -0.0001 -0.0049 -1.0000
# 18 vertex normals

g map_stud
usemtl map_stud
f 1//1 2//1 3//1 
f 4//1 1//1 3//1 
f 5//2 6//2 7//2 
f 5//2 7//2 8//2 
f 8//3 7//3 9//3 
f 8//3 9//3 10//3 
f 10//4 9//4 11//4 
f 10//4 11//4 12//4 
f 12//5 11//5 13//5 
f 12//5 13//5 14//5 
f 14//6 13//6 15//6 
f 14//6 15//6 16//6 
f 16//7 15//7 17//7 
f 16//7 17//7 18//7 
f 18//8 17//8 19//8 
f 18//8 19//8 20//8 
f 20//9 19//9 21//9 
f 20//9 21//9 22//9 
f 22//10 21//10 23//10 
f 22//10 23//10 24//10 
f 24//11 23//11 25//11 
f 24//11 25//11 26//11 
f 26//12 25//12 27//12 
f 26//12 27//12 28//12 
f 28//13 27//13 6//13 
f 28//13 6//13 5//13 
f 29//1 5//1 8//1 
f 29//1 8//1 10//1 
f 29//1 10//1 12//1 
f 29//14 12//14 14//14 
f 29//15 14//15 16//15 
f 29//16 16//16 18//16 
f 29//14 18//14 20//14 
f 29//1 20//1 22//1 
f 29//1 22//1 24//1 
f 29//1 24//1 26//1 
f 29//17 26//17 28//17 
f 29//18 28//18 5//18 
# 38 faces

